<svg width="200" height="200" viewBox="0 0 200 200" fill="none" xmlns="http://www.w3.org/2000/svg">
<g clip-path="url(#clip0_1858_7455)">
<path d="M100 0C44.7711 0 0 44.7719 0 99.9992C0 155.228 44.7711 200 100 200C155.229 200 200 155.228 200 99.9992C200 44.7719 155.229 0 100 0ZM195.581 93.2348C194.606 94.1687 192.044 96.1441 191.434 96.148H191.433C190.152 96.148 188.471 92.9953 187.244 90.6926C186.44 88.9332 184.268 86.4137 184.491 83.3168C184.181 74.7715 178.534 76.6832 182.019 68.0574C182.651 66.2512 182.527 62.4699 182.103 58.3266C183.292 57.7727 184.404 57.207 185.428 56.6285C191.102 67.759 194.662 80.1371 195.581 93.2348ZM184.548 54.9512C183.72 55.4191 182.827 55.8793 181.88 56.3316C181.554 53.6105 181.134 50.848 180.742 48.4691C182.091 50.5762 183.363 52.7371 184.548 54.9512ZM178.435 45.0262C179.174 49.0074 179.827 53.2918 180.227 57.0883C175.85 59.0066 170.41 60.7719 164.109 62.35C158.66 51.0137 150.819 38.3414 135.352 22.5094C140.466 21.1305 144.767 19.3344 147.795 16.9742C159.936 23.9902 170.401 33.5949 178.435 45.0262ZM58.5043 29.1027C59.5086 27.8668 60.543 26.6309 61.6133 25.3879C74.2887 28.0762 85.7602 27.6254 86.9121 27.5855C84.3184 39.0441 81.4813 53.7777 79.3586 70.6512C71.3754 70.5895 64.1547 70.1504 57.6613 69.4742C56.4367 67.0207 45.9477 58.7988 50.1898 51.3473C50.9527 50.1387 61.4926 37.6793 58.5043 29.1027ZM77.1199 72.5137C71.6039 77.6754 71.0852 82.6922 72.3453 85.3246C73.3465 87.4148 75.393 88.7207 77.4031 89.532C77.2793 91.0484 77.1621 92.5742 77.0539 94.1133C69.5891 92.4789 62.4891 87.3145 62.3434 83.8281C62.1391 78.9207 60.5344 74.6414 58.8605 71.5187C64.4172 72.048 70.4984 72.4051 77.1199 72.5137ZM74.05 84.5074C73.1 82.5246 73.9187 77.416 79.0164 73.4625C78.4723 78.0211 77.9824 82.7231 77.5664 87.5543C76.1008 86.8898 74.7262 85.9184 74.05 84.5074ZM78.7977 96.3355C85.5402 96.4848 86.9555 101.832 92.8223 107.946C96.4285 111.139 104.63 114.639 104.708 115.897C104.712 115.911 103.048 118.596 102.233 123.377C94.2426 123.462 86.1371 123.394 77.966 123.266C77.9219 114.019 78.2332 105.005 78.7977 96.3355ZM106.2 117.106C107.843 114.615 104.16 112.788 101.055 111.032C98.7937 109.754 96.2316 108.306 94.0234 106.487C90.9117 103.943 86.8828 94.2789 78.9254 94.4465C79.0258 93.0062 79.1324 91.5766 79.2461 90.1574C80.7234 90.5727 81.9688 90.7379 82.4586 90.791C84.6797 92.0516 88.2449 94.5457 88.868 96.2066C90.868 102.075 99.3492 109.683 112.781 104.427C117.653 102.521 123.466 102.738 128.059 104.371C128.471 110.225 128.69 116.236 128.66 122.372C120.663 122.95 112.479 123.24 104.164 123.355C104.665 120.761 105.434 118.18 106.2 117.106ZM112.092 102.667C99.8168 107.472 92.6316 100.859 90.6375 95.5434C89.5461 92.634 83.0293 88.9457 83.0293 88.9457C83.0293 88.9457 81.2324 88.7855 79.4051 88.2363C79.8625 82.8426 80.4102 77.6012 81.0258 72.5504C81.1496 72.5504 82.6629 72.5441 85.0969 72.516C89.6289 73.1629 96.8574 79.8012 99.7605 79.8082C100.88 79.8082 104.772 79.8012 100.343 72.182C108.249 71.9258 117.037 71.4918 123.502 70.7633C125.439 80.4731 127.027 91.0945 127.909 102.333C123.239 100.86 117.312 100.625 112.092 102.667ZM117.963 48.0121C120.064 55.4863 121.898 62.9543 123.116 68.852C113.489 69.9977 99.7242 70.3941 99.7242 70.3941C99.3856 68.2254 104.299 65.7684 106.169 63.1082C108.504 60.359 110.408 53.7848 110.961 52.568C112.355 49.5152 117.387 49.7512 117.963 48.0121ZM115.05 32.3309C116.835 33.0746 118.455 34.0512 119.518 34.902C120.148 35.4059 125.434 38.2574 125.501 38.834C125.49 39.8293 119.017 41.6957 118.245 42.1855C117.066 38.3301 115.962 34.9879 115.05 32.3309ZM99.7609 77.9184C98.8047 77.9184 91.8375 73.3426 90.1066 72.4391C92.5504 72.3945 95.3465 72.332 98.3129 72.2445C101.748 78.7379 100.285 77.9184 99.7609 77.9184ZM118.8 44.0215C121.191 42.8059 127.357 41.6242 127.391 38.834C127.391 36.3801 122.514 34.8918 120.698 33.4254C119.321 32.323 116.927 30.8863 114.244 30.0145C113.579 28.1316 113.08 26.7848 112.82 26.0848C120.116 25.4316 127.144 24.4957 133.209 23.0508C148.527 38.7078 155.968 49.9758 162.184 62.8199C151.681 65.3203 138.985 67.3191 125.01 68.6734C123.182 59.577 120.904 51.0527 118.8 44.0215ZM112.836 31.5668C114.12 35.2293 115.405 39.2574 116.629 43.3875C115.427 44.6961 116.128 47.1375 116.147 47.2938C115.805 47.791 110.962 48.0984 109.24 51.7859C108.649 53.0875 106.343 59.8664 104.693 61.9281C103.095 64.3984 97.5426 66.9266 97.8328 70.4531C91.8496 70.7773 82.3289 70.659 81.2754 70.5449C83.4152 53.6398 88.7941 27.5035 88.8727 27.5008C87.8406 32.9785 90.207 34.5625 94.7391 36.3758C96.8059 37.2023 98.3793 37.7875 99.8078 37.7875C103.24 37.7875 103.981 34.4891 103.851 31.15C103.825 30.4688 103.756 29.2223 103.956 29.1219C105.103 28.7254 111.411 31.4895 112.836 31.5668ZM109.091 28.4574C103.947 26.6086 101.769 26.2559 101.963 31.2238C102.06 33.7324 101.9 35.8977 99.8078 35.8977C98.6332 35.8977 97.0105 35.2484 95.4402 34.6199C91.9199 33.5215 89.3055 31.5371 90.941 27.4098C97.3379 27.1254 104.296 26.7949 110.867 26.2535C111.266 27.2629 111.667 28.3254 112.07 29.427C111.076 29.1645 110.069 28.809 109.091 28.4574ZM89.8445 25.5652C89.5898 25.5773 89.5594 25.5887 89.3047 25.5996C90.2559 21.5098 91.1617 17.8926 91.9734 14.8016C92.0691 14.8461 96.932 18.7227 96.8461 20.0891C96.8418 21.9316 92.9676 21.1855 89.8445 25.5652ZM87.348 25.6824C78.2441 26.0441 69.9055 25.0824 63.0957 23.7613C65.7469 20.9082 68.3629 18.3926 70.8586 16.1871C79.1113 19.5285 87.232 15.9746 87.232 15.9746C87.232 15.9746 88.432 14.9723 90.0687 14.6187C89.2391 17.7902 88.3148 21.498 87.348 25.6824ZM60.9336 23.3191C58.9676 22.898 57.1547 22.4535 55.5082 22.0133C55.0684 21.4137 54.6004 20.9039 54.109 20.5207C55.9523 19.6441 60.3867 17.6223 60.3867 17.6223C61.2793 16.602 65.6059 11.2844 68.9602 15.3504C66.3703 17.6746 63.6648 20.3207 60.9336 23.3191ZM59.4914 24.9332C58.9391 25.559 58.3984 26.1879 57.8676 26.8184C57.577 25.9473 57.2395 25.0988 56.8605 24.3098C57.7035 24.5199 58.5785 24.7293 59.4914 24.9332ZM56.9625 31.0316C58.8938 36.8285 49.3512 49.1004 48.5922 50.3379C43.4902 58.6574 54.7742 68.6387 55.1941 69.2027C48.6027 68.4332 42.8043 67.4234 37.7965 66.3184C42.843 51.9816 48.8152 41.409 56.9625 31.0316ZM56.5695 71.2871C58.3769 74.3504 60.2453 78.8832 60.4551 83.9066C60.6543 88.6887 68.7004 94.3434 76.9254 96.0246C76.3504 104.782 76.0328 113.888 76.0758 123.232C56.359 122.859 40.8117 120.866 29.2625 118.609C29.3527 98.7387 32.5004 82.0383 37.1566 68.1762C42.6656 69.3918 49.1238 70.4934 56.5695 71.2871ZM76.0883 125.123C76.2609 144.284 77.4426 158.621 79.05 169.326C65.2137 169.403 50.3801 168.136 40.4262 167.067C31.3344 150.794 29.3676 132.573 29.2633 120.529C40.8957 122.782 56.4504 124.754 76.0883 125.123ZM77.9785 125.155C84.7937 125.434 93.4461 125.44 101.923 125.292C101.596 127.786 101.62 130.055 102.31 131.091C103.155 132.36 107.687 143.082 108.241 144.301C110.002 147.973 116.829 151.211 116.829 153.584C116.829 155.371 114.995 162.201 112.63 168.814C99.1074 169.21 82.6984 169.293 80.9355 169.31C79.3426 158.732 78.1535 144.432 77.9785 125.155ZM113.958 170.67C117.468 170.561 120.725 170.429 123.39 170.271C122.883 172.577 122.271 174.743 121.593 176.768C121.414 176.944 110.438 187.284 108.089 189.36C105.757 186.798 107.202 184 108.532 182.157C110.304 179.704 112.248 175.311 113.958 170.67ZM114.647 168.752C116.974 162.111 118.719 155.439 118.719 153.584C118.719 149.604 111.801 147.134 109.961 143.519C109.418 142.323 104.827 131.46 103.882 130.043C103.479 129.438 103.53 127.489 103.845 125.256C113.577 125.058 122.874 124.668 128.646 124.261C128.421 143.575 126.432 157.87 123.876 168.347C121.263 168.507 118.082 168.641 114.647 168.752ZM125.371 170.149C127.792 169.992 130.24 169.807 132.705 169.594C132.027 170.282 125.24 174.052 124.097 174.797C124.549 173.323 124.976 171.773 125.371 170.149ZM125.848 168.221C128.38 157.615 130.324 143.291 130.538 124.123C138.545 123.692 146.808 122.57 154.225 121.22C161.932 123.016 167.282 124.352 163.619 132.166C161.934 135.761 161.04 138.798 160.251 141.478C158.716 146.692 157.703 150.137 152.031 153.077C140.752 159.107 145.997 163.076 137.734 167.215C133.732 167.632 129.757 167.961 125.848 168.221ZM130.013 105.214C130.877 105.528 132.625 107.371 137.196 108.902C143.666 111.358 144.671 112.054 145.515 115.033C146.004 116.764 146.554 118.7 149.865 120.014C143.58 120.994 137.132 121.714 130.55 122.23C130.575 116.439 130.382 110.757 130.013 105.214ZM152.901 154.756C159.288 151.444 160.452 147.488 162.064 142.011C162.834 139.397 163.706 136.433 165.33 132.97C167.787 127.727 167.707 122.727 158.696 120.361C165.118 119.058 170.646 117.645 174.43 116.476C174.315 137.158 168.97 152.43 162.37 163.412C155.615 164.859 148.731 165.942 141.895 166.755C146.091 163.62 144.484 158.943 152.901 154.756ZM154.233 119.282C148.099 118.025 147.827 116.267 147.333 114.519C146.22 110.589 144.441 109.63 137.867 107.135C134.397 106.071 131.255 103.544 129.857 103.054C128.989 91.4891 127.376 80.5609 125.395 70.5867C139.598 69.2219 152.423 67.1883 163.036 64.618C169.543 78.6117 174.213 95.275 174.428 114.427C167.945 116.454 161.195 118.041 154.233 119.282ZM145.993 15.9613C142.989 18.098 138.777 19.7285 133.794 20.9852C126.386 13.8344 119.554 8.60273 114.905 5.34141C126.011 7.0832 136.489 10.7402 145.993 15.9613ZM110.725 4.78398C114.801 7.45664 122.726 13.0617 131.604 21.5035C125.784 22.7969 119.084 23.6488 112.134 24.2535C108.51 14.6848 105.285 7.7457 103.576 4.2543C105.982 4.34258 108.366 4.51992 110.725 4.78398ZM101.441 4.19883C102.935 7.19414 106.309 14.2684 110.174 24.4168C104.346 24.8832 98.1617 25.1902 92.4352 25.45C94.2105 23.2578 98.416 23.2168 98.732 20.2086C99.0082 16.9988 93.5684 13.357 92.4633 12.957C93.5277 8.99375 94.3922 6.06172 94.9246 4.31563C96.6063 4.22617 100.961 4.19102 101.441 4.19883ZM92.9117 4.44336C92.3594 6.28008 91.5527 9.05781 90.5871 12.6629C88.5648 12.7418 86.7734 13.957 86.2871 14.3152C85.6332 14.5598 79.1941 17.1258 72.5418 14.7305C78.0004 10.1055 82.7523 7.02266 85.8207 5.23125C88.1582 4.8832 90.5219 4.61836 92.9117 4.44336ZM80.8652 6.10117C77.9289 8.04609 74.3535 10.6598 70.4641 14.0238C64.9852 9.25508 61.8785 13.7699 59.1555 16.0449C58.5918 16.3105 50.3566 20.2332 50.1703 20.432C49.2922 20.1441 48.5211 19.8773 47.8668 19.6426C57.7609 13.2012 68.9109 8.53398 80.8652 6.10117ZM45.9266 20.9395C47.5332 21.5516 50.457 22.5863 54.3859 23.6629C55.1828 24.9285 55.9348 26.6664 56.4469 28.5418C42.1895 46.2176 36.2027 64.9824 35.8871 65.8848C23.202 62.9148 15.9465 59.4496 13.7422 58.2965C21.0586 43.2238 32.2141 30.348 45.9266 20.9395ZM12.9316 60.0168C15.3453 61.3012 22.5949 64.7758 35.2598 67.7434C30.1441 83.077 27.4973 100.028 27.3801 118.231C15.0949 115.707 7.68711 112.956 4.90781 111.813C2.10156 90.9285 7.31797 72.1926 12.9316 60.0168ZM5.20039 113.963C8.67969 115.318 16.009 117.841 27.3715 120.154C27.4363 132.131 29.3004 150.322 38.1305 166.814C34.7504 166.434 32.1063 166.099 30.491 165.886C17.2246 151.896 8.12695 133.919 5.20039 113.963ZM32.627 168.065C34.3824 168.285 36.6309 168.554 39.2539 168.84C41.4531 172.657 44.052 176.359 47.1008 179.853C41.8984 176.395 37.0512 172.444 32.627 168.065ZM53.5992 183.81C48.6988 179.334 44.7574 174.336 41.5988 169.092C53.634 170.684 78.8359 171.215 79.3426 171.211C81.3125 183.428 83.8316 190.612 85.9191 194.783C74.3469 193.071 63.4445 189.282 53.5992 183.81ZM88.1754 195.091C86.1504 191.479 83.3781 184.458 81.2312 171.197C82.9129 171.182 98.7086 171.101 111.928 170.73C110.338 174.952 108.578 178.867 107.001 181.051C102.602 187.142 106.525 191.091 108.189 191.791C108.189 191.791 115.847 185.056 119.964 181.107C117.023 188.113 113.497 192.893 111.553 195.122C107.764 195.579 99.0996 196.318 88.1754 195.091ZM114.392 194.739C116.325 192.213 120.011 186.604 123.05 177.982C125.114 176.186 137.036 169.339 138.245 169.066C145.795 168.275 153.45 167.175 160.973 165.639C153.693 177.094 144.275 184.185 137.516 188.167C130.225 191.282 122.472 193.517 114.392 194.739ZM148.623 182.536C152.865 178.871 158.855 172.911 163.6 165.082C166.482 164.451 169.336 163.748 172.156 162.977C165.423 170.681 157.478 177.299 148.623 182.536ZM174.339 160.386C171.25 161.292 168.113 162.114 164.937 162.842C166.426 160.237 176.612 142.37 176.328 115.875C183.194 113.643 189.532 110.96 195.501 107.798C193.896 127.638 186.221 145.786 174.339 160.386ZM176.303 113.825C176.042 97.2273 173.089 82.4254 164.955 64.1414C170.916 62.6215 176.12 60.9266 180.416 59.0812C180.738 62.8816 180.744 65.9789 180.235 67.4328C176.492 76.5969 182.878 77.0312 182.604 83.4195C182.487 87.8043 185.05 89.9328 185.575 91.582C187.267 94.7555 189.016 98.0371 191.432 98.0379H191.433C192.781 98.0379 194.92 96.2402 195.714 95.5016C195.954 99.7062 195.76 103.721 195.654 105.562C189.532 108.874 183.069 111.601 176.303 113.825Z" fill="black"/>
</g>
<defs>
<clipPath id="clip0_1858_7455">
<rect width="200" height="200" fill="white"/>
</clipPath>
</defs>
</svg>
