<svg width="40" height="40" viewBox="0 0 40 40" fill="none" xmlns="http://www.w3.org/2000/svg">
<path d="M33.333 10H6.66634C4.82801 10 3.33301 11.495 3.33301 13.3333V30C3.33301 31.8383 4.82801 33.3333 6.66634 33.3333H33.333C35.1713 33.3333 36.6663 31.8383 36.6663 30V13.3333C36.6663 11.495 35.1713 10 33.333 10ZM14.9997 23.3333H6.66634V20H14.9997V23.3333ZM33.333 23.3333H29.9997V26.6667H26.6663V23.3333H23.333V20H26.6663V16.6667H29.9997V20H33.333V23.3333ZM6.66634 5H13.333V8.33333H6.66634V5ZM26.6663 5H33.333V8.33333H26.6663V5Z" fill="white"/>
</svg>
