<svg width="40" height="40" viewBox="0 0 40 40" fill="none" xmlns="http://www.w3.org/2000/svg">
<rect width="40" height="40" fill="white"/>
<path d="M17.6433 3.49821C18.2333 2.909 19.0226 2.5623 19.8557 2.52651C20.6887 2.49072 21.5049 2.76844 22.1433 3.30488L22.3566 3.49988L25.5233 6.66488H29.9999C30.8406 6.66503 31.6502 6.98283 32.2665 7.55461C32.8828 8.12638 33.2602 8.90991 33.3233 9.74821L33.3333 9.99821V14.4749L36.4999 17.6415C37.0896 18.2316 37.4366 19.0213 37.4724 19.8548C37.5082 20.6882 37.2302 21.5048 36.6933 22.1432L36.4983 22.3549L33.3316 25.5215V29.9982C33.3319 30.8392 33.0143 31.6492 32.4425 32.2658C31.8706 32.8824 31.0869 33.2601 30.2483 33.3232L29.9999 33.3315H25.525L22.3583 36.4982C21.7682 37.0879 20.9785 37.4349 20.1451 37.4707C19.3116 37.5065 18.4951 37.2285 17.8566 36.6915L17.6449 36.4982L14.4783 33.3315H9.99995C9.15899 33.3318 8.34901 33.0142 7.73237 32.4424C7.11573 31.8706 6.73802 31.0868 6.67495 30.2482L6.66662 29.9982V25.5215L3.49995 22.3549C2.91027 21.7648 2.56328 20.9751 2.52749 20.1417C2.49169 19.3082 2.7697 18.4917 3.30662 17.8532L3.49995 17.6415L6.66662 14.4749V9.99821C6.66677 9.15754 6.98457 8.34797 7.55634 7.73169C8.12812 7.11541 8.91165 6.73793 9.74995 6.67488L9.99995 6.66488H14.4766L17.6433 3.49821ZM20 5.85821L16.8333 9.02488C16.2797 9.57763 15.5493 9.91805 14.77 9.98655L14.4766 9.99821H9.99995V14.4749C10.0002 15.258 9.72459 16.0163 9.22162 16.6165L9.02328 16.8332L5.85662 19.9999L9.02328 23.1649C9.57665 23.7182 9.91767 24.4487 9.98662 25.2282L9.99995 25.5215V29.9982H14.4766C15.2598 29.998 16.018 30.2736 16.6183 30.7765L16.835 30.9749L20 34.1415L23.1666 30.9749C23.72 30.4215 24.4504 30.0805 25.2299 30.0115L25.5233 29.9982H29.9999V25.5215C29.9997 24.7384 30.2753 23.9802 30.7783 23.3799L30.9766 23.1632L34.1433 19.9982L30.9766 16.8315C30.4233 16.2782 30.0822 15.5477 30.0133 14.7682L29.9999 14.4749V9.99821H25.5233C24.7401 9.99841 23.9819 9.72286 23.3816 9.21988L23.165 9.02155L19.9983 5.85488L20 5.85821ZM25.1333 14.9715C25.4332 14.6726 25.8357 14.4991 26.2589 14.4862C26.6822 14.4732 27.0945 14.6219 27.4121 14.902C27.7297 15.182 27.9288 15.5725 27.9689 15.994C28.0091 16.4155 27.8873 16.8366 27.6283 17.1715L27.4883 17.3282L19.3549 25.4615C19.0374 25.7795 18.6141 25.9698 18.1656 25.9962C17.717 26.0226 17.2743 25.8834 16.9216 25.6049L16.7616 25.4632L12.755 21.4565C12.4529 21.1573 12.2766 20.7539 12.2621 20.329C12.2477 19.904 12.3963 19.4896 12.6774 19.1706C12.9585 18.8516 13.3509 18.652 13.7743 18.6129C14.1977 18.5737 14.6201 18.6978 14.9549 18.9599L15.1116 19.0982L18.0583 22.0449L25.1333 14.9715Z" fill="black"/>
</svg>
