<svg width="40" height="40" viewBox="0 0 40 40" fill="none" xmlns="http://www.w3.org/2000/svg">
<path fill-rule="evenodd" clip-rule="evenodd" d="M20.833 5C22.1997 5 23.3163 6.09 23.343 7.46L23.383 8.85333L23.428 9.97833L23.523 11.7783L23.588 12.7967L23.6247 13.3333H27.3897C28.8997 13.3333 29.9813 14.6217 29.9397 15.9917L29.9313 16.7417L29.9397 17.2083L29.9563 17.7333L29.9897 18.3183L30.0347 18.9617L30.0997 19.6617L30.183 20.4217L30.2897 21.235L30.4213 22.1067L30.4963 22.5617L30.668 23.515L30.8697 24.5217C31.1613 25.9 31.5397 27.4217 32.0297 29.08L32.418 30.3467C32.5547 30.78 32.6991 31.22 32.8513 31.6667H34.9997C35.4417 31.6667 35.8656 31.8423 36.1782 32.1548C36.4907 32.4674 36.6663 32.8913 36.6663 33.3333C36.6663 33.7754 36.4907 34.1993 36.1782 34.5118C35.8656 34.8244 35.4417 35 34.9997 35H4.99967C4.55765 35 4.13372 34.8244 3.82116 34.5118C3.5086 34.1993 3.33301 33.7754 3.33301 33.3333C3.33301 32.8913 3.5086 32.4674 3.82116 32.1548C4.13372 31.8423 4.55765 31.6667 4.99967 31.6667H7.09467C8.23634 27.7367 8.94967 23.8383 9.38967 20.3317L9.55134 18.95L9.68634 17.6167L9.74467 16.9683L9.84467 15.715L9.92134 14.52L9.97967 13.3917L10.0213 12.3333L10.048 11.35L10.0647 10.4467V9.01333L10.0447 7.83333L10.038 7.60167C10.0266 7.26409 10.0833 6.92767 10.2046 6.61246C10.326 6.29724 10.5095 6.00968 10.7444 5.76691C10.9792 5.52414 11.2605 5.33112 11.5715 5.19937C11.8826 5.06761 12.2169 4.99981 12.5547 5H20.833ZM20.0297 8.33333H13.3897L13.3997 9.23667L13.398 10.35L13.3847 11.2517L13.3597 12.235L13.3213 13.2917L13.2663 14.4183L13.233 15.0083L13.1497 16.2317L13.043 17.515L12.9813 18.175L12.8413 19.535C12.4252 23.3576 11.7339 27.1452 10.773 30.8683L10.558 31.6667H22.8913L22.573 30.2067L22.423 29.48L22.1397 28.0367L21.8813 26.6083L21.6447 25.1983L21.428 23.8117L21.2313 22.4517L21.053 21.1233L20.8947 19.8267L20.6863 17.9567L20.5663 16.7633L20.463 15.6183L20.2947 13.485L20.173 11.585L20.1063 10.335L20.0397 8.61833L20.0297 8.33333ZM26.598 16.6667H23.9063L23.9947 17.5467L24.1963 19.375C24.638 23.1233 25.3047 27.375 26.3113 31.6667H29.3397C28.8886 30.26 28.5047 28.9333 28.188 27.6867L27.888 26.47L27.6297 25.3083L27.4063 24.2033L27.2163 23.155L27.133 22.655L26.988 21.6933C26.9456 21.3938 26.9067 21.0938 26.8713 20.7933L26.778 19.95L26.708 19.17L26.658 18.45L26.6247 17.7933L26.5997 16.925L26.598 16.6667Z" fill="white"/>
</svg>
