<svg width="40" height="40" viewBox="0 0 40 40" fill="none" xmlns="http://www.w3.org/2000/svg">
<path d="M26.25 16.25H30V23.75H26.25V16.25Z" fill="white"/>
<path d="M35 7.5H5C4.33696 7.5 3.70107 7.76339 3.23223 8.23223C2.76339 8.70107 2.5 9.33696 2.5 10V30C2.5 30.663 2.76339 31.2989 3.23223 31.7678C3.70107 32.2366 4.33696 32.5 5 32.5H35C35.663 32.5 36.2989 32.2366 36.7678 31.7678C37.2366 31.2989 37.5 30.663 37.5 30V10C37.5 9.33696 37.2366 8.70107 36.7678 8.23223C36.2989 7.76339 35.663 7.5 35 7.5ZM10 26.25H7.5V13.75H10V26.25ZM21.25 16.25H15V18.75H18.75C19.413 18.75 20.0489 19.0134 20.5178 19.4822C20.9866 19.9511 21.25 20.587 21.25 21.25V23.75C21.25 24.413 20.9866 25.0489 20.5178 25.5178C20.0489 25.9866 19.413 26.25 18.75 26.25H12.5V23.75H18.75V21.25H15C14.337 21.25 13.7011 20.9866 13.2322 20.5178C12.7634 20.0489 12.5 19.413 12.5 18.75V16.25C12.5 15.587 12.7634 14.9511 13.2322 14.4822C13.7011 14.0134 14.337 13.75 15 13.75H21.25V16.25ZM32.5 23.75C32.5 24.413 32.2366 25.0489 31.7678 25.5178C31.2989 25.9866 30.663 26.25 30 26.25H26.25C25.587 26.25 24.9511 25.9866 24.4822 25.5178C24.0134 25.0489 23.75 24.413 23.75 23.75V16.25C23.75 15.587 24.0134 14.9511 24.4822 14.4822C24.9511 14.0134 25.587 13.75 26.25 13.75H30C30.663 13.75 31.2989 14.0134 31.7678 14.4822C32.2366 14.9511 32.5 15.587 32.5 16.25V23.75Z" fill="white"/>
</svg>
