<svg width="40" height="40" viewBox="0 0 40 40" fill="none" xmlns="http://www.w3.org/2000/svg">
<path d="M13.3337 18.3307C15.5438 18.3307 17.6634 17.4528 19.2262 15.89C20.789 14.3271 21.667 12.2075 21.667 9.9974C21.667 7.78726 20.789 5.66764 19.2262 4.10484C17.6634 2.54204 15.5438 1.66406 13.3337 1.66406C11.1235 1.66406 9.00391 2.54204 7.4411 4.10484C5.8783 5.66764 5.00033 7.78726 5.00033 9.9974C5.00033 12.2075 5.8783 14.3271 7.4411 15.89C9.00391 17.4528 11.1235 18.3307 13.3337 18.3307ZM13.3337 18.3307C16.6887 18.3307 19.6203 19.5974 21.7053 21.7024C22.9415 22.9557 23.8663 24.4816 24.4053 26.1574M13.3337 18.3307C6.66699 18.3307 1.66699 23.3307 1.66699 29.9974V38.3307H18.3337M20.0003 31.3707L26.9837 36.6641L38.3337 21.6641" stroke="white" stroke-width="2"/>
</svg>
